<mxfile host="app.diagrams.net" modified="2023-07-12T16:28:55.929Z" agent="Mozilla/5.0 (Windows NT 10.0; WOW64) AppleWebKit/537.36 (KHTML, like Gecko) Chrome/114.0.0.0 YaBrowser/23.7.0.2461 Yowser/2.5 Safari/537.36" etag="Qy42gl0ED18KmB9iEaIk" version="21.6.1" type="github">
  <diagram name="Страница 1" id="hX6ctZDO-xxYMzIiYCJp">
    <mxGraphModel dx="660" dy="361" grid="1" gridSize="10" guides="1" tooltips="1" connect="1" arrows="1" fold="1" page="1" pageScale="1" pageWidth="827" pageHeight="1169" math="0" shadow="0">
      <root>
        <mxCell id="0" />
        <mxCell id="1" parent="0" />
        <mxCell id="cVZhM8GOEquGNyxT58sD-1" value="Passport" style="swimlane;childLayout=stackLayout;horizontal=1;startSize=50;horizontalStack=0;rounded=1;fontSize=14;fontStyle=0;strokeWidth=2;resizeParent=0;resizeLast=1;shadow=0;dashed=0;align=center;arcSize=4;whiteSpace=wrap;html=1;" parent="1" vertex="1">
          <mxGeometry x="260" y="50" width="110" height="110" as="geometry" />
        </mxCell>
        <mxCell id="cVZhM8GOEquGNyxT58sD-2" value="passport_numder&lt;br&gt;issue_date&lt;br&gt;valid_till" style="align=left;strokeColor=none;fillColor=none;spacingLeft=4;fontSize=12;verticalAlign=top;resizable=0;rotatable=0;part=1;html=1;" parent="cVZhM8GOEquGNyxT58sD-1" vertex="1">
          <mxGeometry y="50" width="110" height="60" as="geometry" />
        </mxCell>
        <mxCell id="cVZhM8GOEquGNyxT58sD-3" value="Person" style="swimlane;childLayout=stackLayout;horizontal=1;startSize=50;horizontalStack=0;rounded=1;fontSize=14;fontStyle=0;strokeWidth=2;resizeParent=0;resizeLast=1;shadow=0;dashed=0;align=center;arcSize=4;whiteSpace=wrap;html=1;" parent="1" vertex="1">
          <mxGeometry x="50" y="50" width="110" height="120" as="geometry" />
        </mxCell>
        <mxCell id="cVZhM8GOEquGNyxT58sD-4" value="id&lt;br&gt;name&lt;br&gt;surname&lt;br&gt;passport_number" style="align=left;strokeColor=none;fillColor=none;spacingLeft=4;fontSize=12;verticalAlign=top;resizable=0;rotatable=0;part=1;html=1;" parent="cVZhM8GOEquGNyxT58sD-3" vertex="1">
          <mxGeometry y="50" width="110" height="70" as="geometry" />
        </mxCell>
        <mxCell id="dKdhmhlbLbnjzhvssJ6g-2" value="Orders" style="swimlane;childLayout=stackLayout;horizontal=1;startSize=50;horizontalStack=0;rounded=1;fontSize=14;fontStyle=0;strokeWidth=2;resizeParent=0;resizeLast=1;shadow=0;dashed=0;align=center;arcSize=4;whiteSpace=wrap;html=1;" parent="1" vertex="1">
          <mxGeometry x="210" y="350" width="110" height="130" as="geometry" />
        </mxCell>
        <mxCell id="dKdhmhlbLbnjzhvssJ6g-3" value="order_id&lt;br&gt;order_date&lt;br&gt;delivery_date&lt;br&gt;product_id&lt;br&gt;client_id" style="align=left;strokeColor=none;fillColor=none;spacingLeft=4;fontSize=12;verticalAlign=top;resizable=0;rotatable=0;part=1;html=1;" parent="dKdhmhlbLbnjzhvssJ6g-2" vertex="1">
          <mxGeometry y="50" width="110" height="80" as="geometry" />
        </mxCell>
        <mxCell id="dKdhmhlbLbnjzhvssJ6g-4" value="Clients" style="swimlane;childLayout=stackLayout;horizontal=1;startSize=50;horizontalStack=0;rounded=1;fontSize=14;fontStyle=0;strokeWidth=2;resizeParent=0;resizeLast=1;shadow=0;dashed=0;align=center;arcSize=4;whiteSpace=wrap;html=1;" parent="1" vertex="1">
          <mxGeometry x="30" y="370" width="90" height="120" as="geometry" />
        </mxCell>
        <mxCell id="dKdhmhlbLbnjzhvssJ6g-5" value="client_id&lt;br&gt;name&lt;br&gt;surname&lt;br&gt;phone" style="align=left;strokeColor=none;fillColor=none;spacingLeft=4;fontSize=12;verticalAlign=top;resizable=0;rotatable=0;part=1;html=1;" parent="dKdhmhlbLbnjzhvssJ6g-4" vertex="1">
          <mxGeometry y="50" width="90" height="70" as="geometry" />
        </mxCell>
        <mxCell id="dKdhmhlbLbnjzhvssJ6g-7" value="Products" style="swimlane;childLayout=stackLayout;horizontal=1;startSize=50;horizontalStack=0;rounded=1;fontSize=14;fontStyle=0;strokeWidth=2;resizeParent=0;resizeLast=1;shadow=0;dashed=0;align=center;arcSize=4;whiteSpace=wrap;html=1;" parent="1" vertex="1">
          <mxGeometry x="190" y="680" width="110" height="90" as="geometry" />
        </mxCell>
        <mxCell id="dKdhmhlbLbnjzhvssJ6g-8" value="product_id&lt;br&gt;name" style="align=left;strokeColor=none;fillColor=none;spacingLeft=4;fontSize=12;verticalAlign=top;resizable=0;rotatable=0;part=1;html=1;" parent="dKdhmhlbLbnjzhvssJ6g-7" vertex="1">
          <mxGeometry y="50" width="110" height="40" as="geometry" />
        </mxCell>
        <mxCell id="dKdhmhlbLbnjzhvssJ6g-9" value="Orders" style="swimlane;childLayout=stackLayout;horizontal=1;startSize=50;horizontalStack=0;rounded=1;fontSize=14;fontStyle=0;strokeWidth=2;resizeParent=0;resizeLast=1;shadow=0;dashed=0;align=center;arcSize=4;whiteSpace=wrap;html=1;" parent="1" vertex="1">
          <mxGeometry x="190" y="530" width="110" height="120" as="geometry" />
        </mxCell>
        <mxCell id="dKdhmhlbLbnjzhvssJ6g-10" value="order_id&lt;br&gt;order_date&lt;br&gt;delivery_date&lt;br&gt;client_id" style="align=left;strokeColor=none;fillColor=none;spacingLeft=4;fontSize=12;verticalAlign=top;resizable=0;rotatable=0;part=1;html=1;" parent="dKdhmhlbLbnjzhvssJ6g-9" vertex="1">
          <mxGeometry y="50" width="110" height="70" as="geometry" />
        </mxCell>
        <mxCell id="dKdhmhlbLbnjzhvssJ6g-11" value="Ordered" style="swimlane;childLayout=stackLayout;horizontal=1;startSize=50;horizontalStack=0;rounded=1;fontSize=14;fontStyle=0;strokeWidth=2;resizeParent=0;resizeLast=1;shadow=0;dashed=0;align=center;arcSize=4;whiteSpace=wrap;html=1;" parent="1" vertex="1">
          <mxGeometry x="380" y="620" width="110" height="90" as="geometry" />
        </mxCell>
        <mxCell id="dKdhmhlbLbnjzhvssJ6g-12" value="product_id&lt;br&gt;order_id" style="align=left;strokeColor=none;fillColor=none;spacingLeft=4;fontSize=12;verticalAlign=top;resizable=0;rotatable=0;part=1;html=1;" parent="dKdhmhlbLbnjzhvssJ6g-11" vertex="1">
          <mxGeometry y="50" width="110" height="40" as="geometry" />
        </mxCell>
        <mxCell id="dKdhmhlbLbnjzhvssJ6g-14" value="" style="edgeStyle=entityRelationEdgeStyle;fontSize=12;html=1;endArrow=ERoneToMany;rounded=0;exitX=1.004;exitY=0.344;exitDx=0;exitDy=0;exitPerimeter=0;entryX=0;entryY=0.75;entryDx=0;entryDy=0;" parent="1" source="dKdhmhlbLbnjzhvssJ6g-8" target="dKdhmhlbLbnjzhvssJ6g-12" edge="1">
          <mxGeometry width="100" height="100" relative="1" as="geometry">
            <mxPoint x="280" y="730" as="sourcePoint" />
            <mxPoint x="380" y="630" as="targetPoint" />
          </mxGeometry>
        </mxCell>
        <mxCell id="dKdhmhlbLbnjzhvssJ6g-15" value="" style="edgeStyle=entityRelationEdgeStyle;fontSize=12;html=1;endArrow=ERoneToMany;rounded=0;exitX=0.991;exitY=0.176;exitDx=0;exitDy=0;exitPerimeter=0;entryX=0.004;entryY=0.344;entryDx=0;entryDy=0;entryPerimeter=0;" parent="1" source="dKdhmhlbLbnjzhvssJ6g-10" target="dKdhmhlbLbnjzhvssJ6g-12" edge="1">
          <mxGeometry width="100" height="100" relative="1" as="geometry">
            <mxPoint x="280" y="730" as="sourcePoint" />
            <mxPoint x="380" y="630" as="targetPoint" />
          </mxGeometry>
        </mxCell>
        <mxCell id="dKdhmhlbLbnjzhvssJ6g-16" value="Clients" style="swimlane;childLayout=stackLayout;horizontal=1;startSize=50;horizontalStack=0;rounded=1;fontSize=14;fontStyle=0;strokeWidth=2;resizeParent=0;resizeLast=1;shadow=0;dashed=0;align=center;arcSize=4;whiteSpace=wrap;html=1;" parent="1" vertex="1">
          <mxGeometry x="30" y="605" width="90" height="120" as="geometry" />
        </mxCell>
        <mxCell id="dKdhmhlbLbnjzhvssJ6g-17" value="client_id&lt;br&gt;name&lt;br&gt;surname&lt;br&gt;phone" style="align=left;strokeColor=none;fillColor=none;spacingLeft=4;fontSize=12;verticalAlign=top;resizable=0;rotatable=0;part=1;html=1;" parent="dKdhmhlbLbnjzhvssJ6g-16" vertex="1">
          <mxGeometry y="50" width="90" height="70" as="geometry" />
        </mxCell>
        <mxCell id="dKdhmhlbLbnjzhvssJ6g-18" value="" style="edgeStyle=entityRelationEdgeStyle;fontSize=12;html=1;endArrow=ERoneToMany;rounded=0;exitX=1.005;exitY=0.18;exitDx=0;exitDy=0;exitPerimeter=0;entryX=-0.006;entryY=0.848;entryDx=0;entryDy=0;entryPerimeter=0;" parent="1" source="dKdhmhlbLbnjzhvssJ6g-17" edge="1" target="dKdhmhlbLbnjzhvssJ6g-10">
          <mxGeometry width="100" height="100" relative="1" as="geometry">
            <mxPoint x="100" y="750" as="sourcePoint" />
            <mxPoint x="190" y="594" as="targetPoint" />
          </mxGeometry>
        </mxCell>
        <mxCell id="dKdhmhlbLbnjzhvssJ6g-19" value="" style="edgeStyle=entityRelationEdgeStyle;fontSize=12;html=1;endArrow=ERoneToMany;rounded=0;exitX=1.005;exitY=0.169;exitDx=0;exitDy=0;exitPerimeter=0;entryX=-0.009;entryY=0.88;entryDx=0;entryDy=0;entryPerimeter=0;" parent="1" source="dKdhmhlbLbnjzhvssJ6g-5" target="dKdhmhlbLbnjzhvssJ6g-3" edge="1">
          <mxGeometry width="100" height="100" relative="1" as="geometry">
            <mxPoint x="130" y="514" as="sourcePoint" />
            <mxPoint x="200" y="440" as="targetPoint" />
          </mxGeometry>
        </mxCell>
        <mxCell id="JrW1zgSgHSlBFNyepUIQ-1" value="" style="edgeStyle=entityRelationEdgeStyle;fontSize=12;html=1;endArrow=ERmandOne;startArrow=ERmandOne;rounded=0;exitX=1.004;exitY=0.85;exitDx=0;exitDy=0;exitPerimeter=0;entryX=0;entryY=0.25;entryDx=0;entryDy=0;" edge="1" parent="1" source="cVZhM8GOEquGNyxT58sD-4" target="cVZhM8GOEquGNyxT58sD-2">
          <mxGeometry width="100" height="100" relative="1" as="geometry">
            <mxPoint x="180" y="200" as="sourcePoint" />
            <mxPoint x="280" y="100" as="targetPoint" />
          </mxGeometry>
        </mxCell>
        <mxCell id="JrW1zgSgHSlBFNyepUIQ-2" value="Book" style="swimlane;childLayout=stackLayout;horizontal=1;startSize=50;horizontalStack=0;rounded=1;fontSize=14;fontStyle=0;strokeWidth=2;resizeParent=0;resizeLast=1;shadow=0;dashed=0;align=center;arcSize=4;whiteSpace=wrap;html=1;" vertex="1" parent="1">
          <mxGeometry x="210" y="1059" width="110" height="110" as="geometry" />
        </mxCell>
        <mxCell id="JrW1zgSgHSlBFNyepUIQ-3" value="book_id&lt;br&gt;name&lt;br&gt;genre" style="align=left;strokeColor=none;fillColor=none;spacingLeft=4;fontSize=12;verticalAlign=top;resizable=0;rotatable=0;part=1;html=1;" vertex="1" parent="JrW1zgSgHSlBFNyepUIQ-2">
          <mxGeometry y="50" width="110" height="60" as="geometry" />
        </mxCell>
        <mxCell id="JrW1zgSgHSlBFNyepUIQ-4" value="Author" style="swimlane;childLayout=stackLayout;horizontal=1;startSize=50;horizontalStack=0;rounded=1;fontSize=14;fontStyle=0;strokeWidth=2;resizeParent=0;resizeLast=1;shadow=0;dashed=0;align=center;arcSize=4;whiteSpace=wrap;html=1;" vertex="1" parent="1">
          <mxGeometry x="210" y="909" width="110" height="110" as="geometry" />
        </mxCell>
        <mxCell id="JrW1zgSgHSlBFNyepUIQ-5" value="author_id&lt;br&gt;name&lt;br&gt;surname" style="align=left;strokeColor=none;fillColor=none;spacingLeft=4;fontSize=12;verticalAlign=top;resizable=0;rotatable=0;part=1;html=1;" vertex="1" parent="JrW1zgSgHSlBFNyepUIQ-4">
          <mxGeometry y="50" width="110" height="60" as="geometry" />
        </mxCell>
        <mxCell id="JrW1zgSgHSlBFNyepUIQ-10" value="Publisher" style="swimlane;childLayout=stackLayout;horizontal=1;startSize=50;horizontalStack=0;rounded=1;fontSize=14;fontStyle=0;strokeWidth=2;resizeParent=0;resizeLast=1;shadow=0;dashed=0;align=center;arcSize=4;whiteSpace=wrap;html=1;" vertex="1" parent="1">
          <mxGeometry x="40" y="990" width="110" height="110" as="geometry" />
        </mxCell>
        <mxCell id="JrW1zgSgHSlBFNyepUIQ-11" value="publisher_id&lt;br&gt;name&lt;br&gt;company" style="align=left;strokeColor=none;fillColor=none;spacingLeft=4;fontSize=12;verticalAlign=top;resizable=0;rotatable=0;part=1;html=1;" vertex="1" parent="JrW1zgSgHSlBFNyepUIQ-10">
          <mxGeometry y="50" width="110" height="60" as="geometry" />
        </mxCell>
        <mxCell id="JrW1zgSgHSlBFNyepUIQ-12" value="Published" style="swimlane;childLayout=stackLayout;horizontal=1;startSize=50;horizontalStack=0;rounded=1;fontSize=14;fontStyle=0;strokeWidth=2;resizeParent=0;resizeLast=1;shadow=0;dashed=0;align=center;arcSize=4;whiteSpace=wrap;html=1;" vertex="1" parent="1">
          <mxGeometry x="380" y="990" width="110" height="110" as="geometry" />
        </mxCell>
        <mxCell id="JrW1zgSgHSlBFNyepUIQ-13" value="author_id&lt;br&gt;book_id" style="align=left;strokeColor=none;fillColor=none;spacingLeft=4;fontSize=12;verticalAlign=top;resizable=0;rotatable=0;part=1;html=1;" vertex="1" parent="JrW1zgSgHSlBFNyepUIQ-12">
          <mxGeometry y="50" width="110" height="60" as="geometry" />
        </mxCell>
      </root>
    </mxGraphModel>
  </diagram>
</mxfile>
